<mxfile host="app.diagrams.net" modified="2023-11-03T09:32:13.194Z" agent="Mozilla/5.0 (Windows NT 10.0; Win64; x64) AppleWebKit/537.36 (KHTML, like Gecko) Chrome/119.0.6045.9 Safari/537.36" etag="W-9coXLxvqSVA19e6KGE" version="22.0.8" type="github">
  <diagram id="C5RBs43oDa-KdzZeNtuy" name="Page-1">
    <mxGraphModel dx="683" dy="418" grid="1" gridSize="10" guides="1" tooltips="1" connect="1" arrows="1" fold="1" page="1" pageScale="1" pageWidth="827" pageHeight="1169" math="0" shadow="0">
      <root>
        <mxCell id="WIyWlLk6GJQsqaUBKTNV-0" />
        <mxCell id="WIyWlLk6GJQsqaUBKTNV-1" parent="WIyWlLk6GJQsqaUBKTNV-0" />
        <mxCell id="5xAQhtf5ni9uGkbtPtf4-2" value="" style="edgeStyle=orthogonalEdgeStyle;rounded=0;orthogonalLoop=1;jettySize=auto;html=1;" edge="1" parent="WIyWlLk6GJQsqaUBKTNV-1" source="5xAQhtf5ni9uGkbtPtf4-0" target="5xAQhtf5ni9uGkbtPtf4-1">
          <mxGeometry relative="1" as="geometry" />
        </mxCell>
        <mxCell id="5xAQhtf5ni9uGkbtPtf4-0" value="查体检终审的记录" style="rounded=1;whiteSpace=wrap;html=1;fontSize=12;glass=0;strokeWidth=1;shadow=0;" vertex="1" parent="WIyWlLk6GJQsqaUBKTNV-1">
          <mxGeometry x="150" y="40" width="120" height="40" as="geometry" />
        </mxCell>
        <mxCell id="5xAQhtf5ni9uGkbtPtf4-6" value="" style="edgeStyle=orthogonalEdgeStyle;rounded=0;orthogonalLoop=1;jettySize=auto;html=1;" edge="1" parent="WIyWlLk6GJQsqaUBKTNV-1" source="5xAQhtf5ni9uGkbtPtf4-1" target="5xAQhtf5ni9uGkbtPtf4-5">
          <mxGeometry relative="1" as="geometry" />
        </mxCell>
        <mxCell id="5xAQhtf5ni9uGkbtPtf4-1" value="生成体检结果记录" style="rounded=1;whiteSpace=wrap;html=1;fontSize=12;glass=0;strokeWidth=1;shadow=0;" vertex="1" parent="WIyWlLk6GJQsqaUBKTNV-1">
          <mxGeometry x="150" y="120" width="120" height="40" as="geometry" />
        </mxCell>
        <mxCell id="5xAQhtf5ni9uGkbtPtf4-5" value="若当前已存在未填写的问卷，则填充12项指标" style="rounded=1;whiteSpace=wrap;html=1;fontSize=12;glass=0;strokeWidth=1;shadow=0;" vertex="1" parent="WIyWlLk6GJQsqaUBKTNV-1">
          <mxGeometry x="150" y="200" width="120" height="40" as="geometry" />
        </mxCell>
        <mxCell id="5xAQhtf5ni9uGkbtPtf4-7" value="检查12项指标填写情况和健康问卷填写情况" style="rounded=1;whiteSpace=wrap;html=1;fontSize=12;glass=0;strokeWidth=1;shadow=0;" vertex="1" parent="WIyWlLk6GJQsqaUBKTNV-1">
          <mxGeometry x="330" y="270" width="120" height="40" as="geometry" />
        </mxCell>
        <mxCell id="5xAQhtf5ni9uGkbtPtf4-9" value="填写健康问卷" style="rounded=1;whiteSpace=wrap;html=1;fontSize=12;glass=0;strokeWidth=1;shadow=0;" vertex="1" parent="WIyWlLk6GJQsqaUBKTNV-1">
          <mxGeometry x="490" y="200" width="120" height="40" as="geometry" />
        </mxCell>
        <mxCell id="5xAQhtf5ni9uGkbtPtf4-11" value="可从体检记录中选择导入填充12项指标" style="rounded=1;whiteSpace=wrap;html=1;fontSize=12;glass=0;strokeWidth=1;shadow=0;" vertex="1" parent="WIyWlLk6GJQsqaUBKTNV-1">
          <mxGeometry x="330" y="350" width="120" height="40" as="geometry" />
        </mxCell>
      </root>
    </mxGraphModel>
  </diagram>
</mxfile>
